<?xml version="1.0" standalone="no"?>
<!DOCTYPE svg PUBLIC "-//W3C//DTD SVG 20010904//EN"
 "http://www.w3.org/TR/2001/REC-SVG-20010904/DTD/svg10.dtd">
<svg version="1.0" xmlns="http://www.w3.org/2000/svg"
 width="241.000000pt" height="217.000000pt" viewBox="0 0 241.000000 217.000000"
 preserveAspectRatio="xMidYMid meet">

<g transform="translate(0.000000,217.000000) scale(0.100000,-0.100000)"
fill="#000000" stroke="none">
<path d="M379 2026 c-43 -56 -135 -177 -207 -270 l-130 -169 78 -101 c42 -56
303 -402 579 -771 276 -369 506 -670 511 -670 5 0 112 137 237 305 838 1123
924 1240 917 1252 -4 7 -59 81 -123 163 -63 83 -152 199 -198 259 l-83 108 -2
-380 -3 -381 -158 275 -159 274 -428 0 -428 0 -159 -274 -158 -275 -5 378 -5
378 -76 -101z m607 -1244 c-7 -7 -351 210 -348 220 2 6 46 89 99 185 l96 175
78 -289 c42 -158 76 -289 75 -291z m656 480 c26 -48 70 -128 98 -178 l50 -91
-158 -95 c-86 -53 -167 -101 -179 -107 -21 -11 -21 -8 13 117 19 70 53 198 76
285 22 86 44 157 47 157 3 0 27 -40 53 -88z m-292 -909 c0 -7 -138 -193 -144
-193 -5 0 -146 188 -146 195 0 3 65 5 145 5 80 0 145 -3 145 -7z"/>
</g>
</svg>
